<svg width="33" height="60" viewBox="0 0 33 60" version="1.1" xmlns="http://www.w3.org/2000/svg"><g id="About" stroke="none" stroke-width="1" fill="none" fill-rule="evenodd"><g id="Desktop-HD" transform="translate(-130 -1040)" fill="#CC9B7A" fill-rule="nonzero"><g id="main" transform="translate(0 860)"><g id="certification-icon" transform="translate(130 180)"><path d="M24.734 32.619a3.62 3.62 0 00-1.123.105c-.298.23-.563.504-.786.811a4.508 4.508 0 01-2.396 1.906 3.118 3.118 0 01-.629.064 5.175 5.175 0 01-2.263-.689 3.787 3.787 0 00-1.037-.413 3.66 3.66 0 00-1.084.413 5.236 5.236 0 01-2.271.69 3.152 3.152 0 01-.62-.065L18.856 60l5.139-6.162 7.433 2.684L25.22 32.61l-.487.008z" id="Path"/><path d="M31.099 20.862c.259-1.167 1.83-2.205 1.83-3.454s-1.571-2.286-1.83-3.446c-.26-1.16.707-2.838.196-3.924-.51-1.087-2.357-1.338-3.096-2.287-.738-.948-.55-2.886-1.485-3.624s-2.687-.146-3.755-.673C21.89 2.927 21.293 1.12 20.13.811c-1.163-.308-2.467 1.11-3.63 1.11-1.163 0-2.577-1.337-3.7-1.11-1.124.227-1.8 2.116-2.853 2.635-1.053.519-2.836-.073-3.748.681-.911.754-.699 2.676-1.485 3.624-.785.949-2.569 1.168-3.088 2.287-.518 1.119.464 2.724.197 3.924C1.556 15.162 0 16.168 0 17.408c0 1.24 1.571 2.287 1.823 3.454.251 1.168-.7 2.838-.197 3.924.503 1.087 2.358 1.338 3.096 2.287.739.949.558 2.862 1.477 3.624.92.762 2.68.146 3.748.673 1.069.527 1.69 2.335 2.852 2.611 1.163.276 2.46-1.078 3.662-1.078s2.538 1.338 3.669 1.078c1.131-.26 1.8-2.084 2.844-2.61 1.045-.528 2.837.08 3.756-.674.92-.754.739-2.675 1.47-3.624.73-.949 2.584-1.184 3.095-2.287.51-1.102-.456-2.724-.196-3.924zM16.5 29.522c-4.751.016-9.044-2.925-10.873-7.45-1.83-4.525-.835-9.742 2.52-13.215C11.5 5.384 16.552 4.34 20.943 6.213c4.391 1.872 7.255 6.292 7.255 11.195 0 6.674-5.231 12.091-11.699 12.114z" id="Shape"/><ellipse id="Oval" cx="16.461" cy="17.408" rx="10.348" ry="10.678"/><path d="M10.073 33.543a3.994 3.994 0 00-.786-.81 3.705 3.705 0 00-1.131-.106h-.464L1.485 56.522l7.433-2.684L14.064 60l1.65-6.349-5.028-19.37c-.228-.227-.425-.503-.613-.738z" id="Path"/></g></g></g></g></svg>