<svg width="70" height="47" viewBox="0 0 70 47" version="1.1" xmlns="http://www.w3.org/2000/svg"><g id="About" stroke="none" stroke-width="1" fill="none" fill-rule="evenodd"><g id="Desktop-HD" transform="translate(-850 -1047)" fill-rule="nonzero"><g id="main" transform="translate(0 860)"><g id="education-icon_v2" transform="translate(850 187)"><path id="Path" fill="#616C5E" d="M33.97 33.83L70 24.5 36.03 0 0 9.48V22.5L33.97 47z"/><path id="Path" fill="#CC9B7A" d="M33.98 45.44h-.01z"/><path id="Path" fill="#899186" d="M33.97 33.83v11.61h.01-.01V47L70 37.52v-1.56l-34.46 9.07v-9.89L70 26.06V24.5z"/><path id="Path" fill="#3A4736" d="M33.97 33.83L0 9.48V22.5L33.97 47z"/><path id="Path" fill="#FFF" d="M35.54 45.03l33.08-8.71V26.4l-33.08 8.72z"/><path id="Path" fill="#EAEAEA" d="M35.54 37.37l33.08-8.71v-2.24l-33.08 8.72z"/><path id="Path" fill="#3A4736" d="M68.53 35.17l1.47.79-34.46 9.07V43.7z"/></g></g></g></g></svg>