<?xml version="1.0" encoding="UTF-8"?>
<svg width="70px" height="47px" viewBox="0 0 70 47" version="1.1" xmlns="http://www.w3.org/2000/svg" xmlns:xlink="http://www.w3.org/1999/xlink">
    <title>education-icon_v2</title>
    <g id="About" stroke="none" stroke-width="1" fill="none" fill-rule="evenodd">
        <g id="Desktop-HD" transform="translate(-850.000000, -1047.000000)" fill-rule="nonzero">
            <g id="main" transform="translate(0.000000, 860.000000)">
                <g id="education-icon_v2" transform="translate(850.000000, 187.000000)">
                    <polygon id="Path" fill="#616C5E" points="33.97 33.83 70 24.5 36.03 0 0 9.48 0 22.5 33.97 47"></polygon>
                    <polygon id="Path" fill="#CC9B7A" points="33.98 45.44 33.97 45.44 33.97 45.44"></polygon>
                    <polygon id="Path" fill="#899186" points="33.97 33.83 33.97 45.44 33.98 45.44 33.97 45.44 33.97 47 70 37.52 70 35.96 35.54 45.03 35.54 35.14 70 26.06 70 24.5"></polygon>
                    <polygon id="Path" fill="#3A4736" points="33.97 33.83 0 9.48 0 22.5 33.97 47"></polygon>
                    <polygon id="Path" fill="#FFFFFF" points="35.54 45.03 68.62 36.32 68.62 26.4 35.54 35.12"></polygon>
                    <polygon id="Path" fill="#EAEAEA" points="35.54 37.37 68.62 28.66 68.62 26.42 35.54 35.14"></polygon>
                    <polygon id="Path" fill="#3A4736" points="68.53 35.17 70 35.96 35.54 45.03 35.54 43.7"></polygon>
                </g>
            </g>
        </g>
    </g>
</svg>