<?xml version="1.0" encoding="UTF-8"?>
<svg width="33px" height="60px" viewBox="0 0 33 60" version="1.1" xmlns="http://www.w3.org/2000/svg" xmlns:xlink="http://www.w3.org/1999/xlink">
    <title>certification-icon-svg</title>
    <g id="About" stroke="none" stroke-width="1" fill="none" fill-rule="evenodd">
        <g id="Desktop-HD" transform="translate(-130.000000, -1040.000000)" fill="#CC9B7A" fill-rule="nonzero">
            <g id="main" transform="translate(0.000000, 860.000000)">
                <g id="certification-icon" transform="translate(130.000000, 180.000000)">
                    <path d="M24.7342857,32.6189189 C24.3567498,32.5950973 23.9778983,32.6306384 23.6107143,32.7243243 C23.3129063,32.9548145 23.048356,33.2278149 22.825,33.5351351 C22.2640513,34.4374235 21.4170599,35.1108681 20.4285714,35.4405405 C20.2216204,35.4834126 20.0110797,35.5051391 19.8,35.5054054 C19.0050895,35.4541969 18.2316098,35.2186213 17.5371429,34.8162162 C17.2125913,34.6274219 16.8632497,34.4881378 16.5,34.4027027 C16.1199886,34.4817199 15.7541918,34.6212237 15.4157143,34.8162162 C14.7180515,35.2177331 13.9422233,35.4532063 13.145,35.5054054 C12.9365411,35.5047131 12.7286472,35.4829881 12.5242857,35.4405405 L18.8571429,60 L23.9957143,53.8378378 L31.4285714,56.5216216 L25.2214286,32.6108108 L24.7342857,32.6189189 Z" id="Path"></path>
                    <path d="M31.0985714,20.8621622 C31.3578571,19.6945946 32.9292857,18.6567568 32.9292857,17.4081081 C32.9292857,16.1594595 31.3578571,15.1216216 31.0985714,13.9621622 C30.8392857,12.8027027 31.8057143,11.1243243 31.295,10.0378378 C30.7842857,8.95135135 28.9378571,8.7 28.1992857,7.75135135 C27.4607143,6.8027027 27.6492857,4.86486486 26.7142857,4.12702703 C25.7792857,3.38918919 24.0271429,3.98108108 22.9585714,3.45405405 C21.89,2.92702703 21.2928571,1.11891892 20.13,0.810810811 C18.9671429,0.502702703 17.6628571,1.92162162 16.5,1.92162162 C15.3371429,1.92162162 13.9228571,0.583783784 12.7992857,0.810810811 C11.6757143,1.03783784 11,2.92702703 9.94714286,3.44594595 C8.89428571,3.96486486 7.11071429,3.37297297 6.19928571,4.12702703 C5.28785714,4.88108108 5.5,6.8027027 4.71428571,7.75135135 C3.92857143,8.7 2.145,8.91891892 1.62642857,10.0378378 C1.10785714,11.1567568 2.09,12.7621622 1.82285714,13.9621622 C1.55571429,15.1621622 0,16.1675676 0,17.4081081 C0,18.6486486 1.57142857,19.6945946 1.82285714,20.8621622 C2.07428571,22.0297297 1.12357143,23.7 1.62642857,24.7864865 C2.12928571,25.872973 3.98357143,26.1243243 4.72214286,27.072973 C5.46071429,28.0216216 5.28,29.9351351 6.19928571,30.6972973 C7.11857143,31.4594595 8.87857143,30.8432432 9.94714286,31.3702703 C11.0157143,31.8972973 11.6364286,33.7054054 12.7992857,33.9810811 C13.9621429,34.2567568 15.2585714,32.9027027 16.4607143,32.9027027 C17.6628571,32.9027027 18.9985714,34.2405405 20.13,33.9810811 C21.2614286,33.7216216 21.9292857,31.8972973 22.9742857,31.3702703 C24.0192857,30.8432432 25.8107143,31.4513514 26.73,30.6972973 C27.6492857,29.9432432 27.4685714,28.0216216 28.1992857,27.072973 C28.93,26.1243243 30.7842857,25.8891892 31.295,24.7864865 C31.8057143,23.6837838 30.8392857,22.0621622 31.0985714,20.8621622 Z M16.5,29.5216899 C11.7486483,29.5380311 7.45629689,26.597095 5.6270044,22.0719089 C3.79771191,17.5467228 4.79229401,12.3298492 8.14638963,8.85699768 C11.5004852,5.38414613 16.5525216,4.34031318 20.9437501,6.21285468 C25.3349786,8.08539617 28.1992857,12.5049659 28.1992857,17.4081081 C28.1992857,24.0824167 22.9676867,29.4992846 16.5,29.5216899 Z" id="Shape"></path>
                    <ellipse id="Oval" cx="16.4607143" cy="17.4081081" rx="10.3478571" ry="10.6783784"></ellipse>
                    <path d="M10.0728571,33.5432432 C9.84950116,33.235923 9.58495083,32.9629226 9.28714286,32.7324324 C8.91720258,32.6392779 8.53584044,32.6037497 8.15571429,32.627027 L7.69214286,32.627027 L1.485,56.5216216 L8.91785714,53.8378378 L14.0642857,60 L15.7142857,53.6513514 L10.6857143,34.2810811 C10.4578571,34.0540541 10.2614286,33.7783784 10.0728571,33.5432432 Z" id="Path"></path>
                </g>
            </g>
        </g>
    </g>
</svg>